<svg width="9" height="10" viewBox="0 0 9 10" fill="none" xmlns="http://www.w3.org/2000/svg">
<path d="M2 6.66667V3.33333C2 3.02778 2.098 2.7663 2.294 2.54889C2.49 2.33148 2.72533 2.22259 3 2.22222H7.075L5.7875 0.791667L6.5 0L9 2.77778L6.5 5.55555L5.7875 4.77778L7.075 3.33333H3V6.66667H2ZM1 10C0.725 10 0.489667 9.8913 0.294 9.67389C0.0983334 9.45648 0.000333333 9.19481 0 8.88889V0.555556H1V8.88889H7V6.66667H8V8.88889C8 9.19444 7.90217 9.45611 7.7065 9.67389C7.51083 9.89167 7.27533 10.0004 7 10H1Z" fill="white"/>
</svg>
