<svg width="12" height="18" viewBox="0 0 12 18" fill="none" xmlns="http://www.w3.org/2000/svg">
<path d="M6 18C4.3375 18 2.92175 17.2737 1.75275 15.8211C0.58375 14.3684 -0.000499679 12.6 3.2065e-07 10.5158C3.2065e-07 9.52105 0.15325 8.56989 0.45975 7.66232C0.76625 6.75474 1.2005 5.95326 1.7625 5.25789L6 0L10.2375 5.25789C10.8 5.95263 11.2345 6.75411 11.541 7.66232C11.8475 8.57053 12.0005 9.52168 12 10.5158C12 12.6 11.4157 14.3684 10.2472 15.8211C9.07875 17.2737 7.663 18 6 18ZM6 16.1053C7.25 16.1053 8.3125 15.5643 9.1875 14.4824C10.0625 13.4005 10.5 12.0783 10.5 10.5158C10.5 9.77368 10.3875 9.06726 10.1625 8.39653C9.9375 7.72579 9.6125 7.13747 9.1875 6.63158L6 2.65263L2.8125 6.63158C2.3875 7.13684 2.0625 7.72516 1.8375 8.39653C1.6125 9.06789 1.5 9.77432 1.5 10.5158C1.5 12.0789 1.9375 13.4015 2.8125 14.4834C3.6875 15.5653 4.75 16.1059 6 16.1053Z" fill="white"/>
</svg>
