<svg width="13" height="18" viewBox="0 0 13 18" fill="none" xmlns="http://www.w3.org/2000/svg">
<path d="M7.00125 11.6836V7.7727C7.00125 7.55571 6.89589 7.3476 6.70835 7.19416C6.52082 7.04073 6.26646 6.95452 6.00125 6.95452C5.73603 6.95452 5.48168 7.04073 5.29414 7.19416C5.10661 7.3476 5.00125 7.55571 5.00125 7.7727V11.6836C4.69897 11.8264 4.44763 12.0314 4.2722 12.2783C4.09677 12.5252 4.00336 12.8053 4.00125 13.0909C4.00125 13.5249 4.21196 13.9411 4.58704 14.248C4.96211 14.5548 5.47082 14.7272 6.00125 14.7272C6.53168 14.7272 7.04039 14.5548 7.41546 14.248C7.79053 13.9411 8.00125 13.5249 8.00125 13.0909C7.99914 12.8053 7.90573 12.5252 7.7303 12.2783C7.55487 12.0314 7.30352 11.8264 7.00125 11.6836ZM10.5012 9.81815V3.68181C10.5012 2.70533 10.0271 1.76885 9.18323 1.07838C8.33931 0.387904 7.19472 0 6.00125 0C4.80777 0 3.66318 0.387904 2.81927 1.07838C1.97535 1.76885 1.50125 2.70533 1.50125 3.68181V9.81815C0.810091 10.459 0.335376 11.2363 0.12406 12.0732C-0.087255 12.9102 -0.0278489 13.7778 0.296403 14.5902C0.620654 15.4027 1.19852 16.1317 1.97283 16.7054C2.74714 17.279 3.69107 17.6773 4.71125 17.8609C5.13504 17.9399 5.5669 17.9865 6.00125 17.9999C7.16187 18.0044 8.29915 17.7333 9.27526 17.2195C10.2514 16.7058 11.0244 15.9714 11.5007 15.1054C11.977 14.2395 12.1361 13.2791 11.9587 12.3406C11.7813 11.4022 11.275 10.5259 10.5012 9.81815ZM8.50125 15.6027C7.7056 16.1799 6.66229 16.4748 5.60083 16.4227C4.53938 16.3705 3.54672 15.9755 2.84125 15.3245C2.13577 14.6735 1.77526 13.8199 1.83902 12.9514C1.90279 12.083 2.3856 11.2708 3.18125 10.6936C3.27574 10.6178 3.35091 10.5275 3.4024 10.4278C3.4539 10.328 3.4807 10.2209 3.48125 10.1127V3.68181C3.48125 3.13932 3.74464 2.61905 4.21348 2.23546C4.68232 1.85186 5.31821 1.63636 5.98125 1.63636C6.64429 1.63636 7.28017 1.85186 7.74901 2.23546C8.21786 2.61905 8.48125 3.13932 8.48125 3.68181V10.1782C8.4818 10.2864 8.5086 10.3935 8.56009 10.4932C8.61159 10.5929 8.68676 10.6833 8.78125 10.7591C9.19 11.0821 9.50991 11.4728 9.71967 11.9049C9.92943 12.3371 10.0242 12.8009 9.99773 13.2654C9.97123 13.7299 9.82407 14.1844 9.56602 14.5987C9.30798 15.013 8.945 15.3776 8.50125 15.6681V15.6027Z" fill="white"/>
</svg>
