<svg width="12" height="18" viewBox="0 0 12 18" fill="none" xmlns="http://www.w3.org/2000/svg">
<path d="M3.6725 8.99949H0.374984C0.168743 8.99949 0 9.28881 0 9.64242V10.9283C0 11.2819 0.168743 11.5712 0.374984 11.5712H3.70765C4.08029 11.5712 4.4295 12.0092 4.49043 12.6401C4.56777 13.4437 4.20685 14.1429 3.74984 14.1429C3.41938 14.1429 3.13815 13.7732 3.03737 13.2629C2.98815 13.0098 2.83581 12.8571 2.68113 12.8571H1.91242C1.68274 12.8571 1.49759 13.2107 1.53978 13.5964C1.74133 15.3685 2.65535 16.7147 3.74749 16.7147C5.08572 16.7147 6.15442 14.7015 5.97865 12.3508C5.83569 10.4059 4.81385 8.99949 3.6725 8.99949ZM0.374984 7.71363H8.24964C9.6488 7.71363 10.7527 5.5116 10.448 3.02426C10.2699 1.56963 9.58318 0.392264 8.73478 0.0868724C7.4364 -0.379252 6.2716 1.08743 6.04193 3.1207C5.9974 3.50646 6.18489 3.85605 6.41222 3.85605H7.18094C7.33796 3.85605 7.48796 3.70336 7.53717 3.4502C7.63795 2.93988 7.91919 2.57019 8.24964 2.57019C8.70431 2.57019 9.06758 3.26938 8.99024 4.07304C8.9293 4.70391 8.58244 5.14191 8.20746 5.14191H0.374984C0.168743 5.14191 0 5.43123 0 5.78484V7.0707C0 7.42431 0.168743 7.71363 0.374984 7.71363ZM9.37459 8.99949H5.71147C6.1638 9.66653 6.48956 10.5586 6.64424 11.5712H9.37459C9.99566 11.5712 10.4995 12.4352 10.4995 13.5C10.4995 14.5649 9.99566 15.4288 9.37459 15.4288C8.95508 15.4288 8.59416 15.031 8.39964 14.4483C8.33167 14.2474 8.19574 14.1429 8.05981 14.1429H7.26765C7.0122 14.1429 6.82236 14.5769 6.90908 14.9908C7.32625 17.0241 8.56135 18.3983 9.94176 17.896C10.9073 17.5464 11.7018 16.2244 11.9268 14.5729C12.3276 11.6315 11.0269 8.99949 9.37459 8.99949Z" fill="white"/>
</svg>
